<mxfile host="app.diagrams.net" modified="2021-05-20T13:50:49.196Z" agent="5.0 (Windows NT 10.0; Win64; x64) AppleWebKit/537.36 (KHTML, like Gecko) Chrome/90.0.4430.212 Safari/537.36" etag="1Cz-qT2Y9N1Sq5bfrNkH" version="14.6.13" type="github">
  <diagram id="C5RBs43oDa-KdzZeNtuy" name="Page-1">
    <mxGraphModel dx="1422" dy="762" grid="1" gridSize="10" guides="1" tooltips="1" connect="1" arrows="1" fold="1" page="1" pageScale="1" pageWidth="827" pageHeight="1169" math="0" shadow="0">
      <root>
        <mxCell id="WIyWlLk6GJQsqaUBKTNV-0" />
        <mxCell id="WIyWlLk6GJQsqaUBKTNV-1" parent="WIyWlLk6GJQsqaUBKTNV-0" />
        <mxCell id="DGfqUXDRV3Cry2h1_wnq-3" value="career_form" style="swimlane;fontStyle=0;align=center;verticalAlign=top;childLayout=stackLayout;horizontal=1;startSize=26;horizontalStack=0;resizeParent=1;resizeLast=0;collapsible=1;marginBottom=0;rounded=0;shadow=0;strokeWidth=1;" parent="WIyWlLk6GJQsqaUBKTNV-1" vertex="1">
          <mxGeometry x="310" y="120" width="460" height="290" as="geometry">
            <mxRectangle x="340" y="82" width="160" height="26" as="alternateBounds" />
          </mxGeometry>
        </mxCell>
        <mxCell id="DGfqUXDRV3Cry2h1_wnq-5" value="job_list" style="text;align=left;verticalAlign=top;spacingLeft=4;spacingRight=4;overflow=hidden;rotatable=0;points=[[0,0.5],[1,0.5]];portConstraint=eastwest;rounded=0;shadow=0;html=0;" parent="DGfqUXDRV3Cry2h1_wnq-3" vertex="1">
          <mxGeometry y="26" width="460" height="26" as="geometry" />
        </mxCell>
        <mxCell id="DGfqUXDRV3Cry2h1_wnq-7" value="job" style="text;align=left;verticalAlign=top;spacingLeft=4;spacingRight=4;overflow=hidden;rotatable=0;points=[[0,0.5],[1,0.5]];portConstraint=eastwest;rounded=0;shadow=0;html=0;" parent="DGfqUXDRV3Cry2h1_wnq-3" vertex="1">
          <mxGeometry y="52" width="460" height="26" as="geometry" />
        </mxCell>
        <mxCell id="DGfqUXDRV3Cry2h1_wnq-54" value="major" style="text;align=left;verticalAlign=top;spacingLeft=4;spacingRight=4;overflow=hidden;rotatable=0;points=[[0,0.5],[1,0.5]];portConstraint=eastwest;rounded=0;shadow=0;html=0;" parent="DGfqUXDRV3Cry2h1_wnq-3" vertex="1">
          <mxGeometry y="78" width="460" height="26" as="geometry" />
        </mxCell>
        <mxCell id="DGfqUXDRV3Cry2h1_wnq-8" value="" style="line;html=1;strokeWidth=1;align=left;verticalAlign=middle;spacingTop=-1;spacingLeft=3;spacingRight=3;rotatable=0;labelPosition=right;points=[];portConstraint=eastwest;" parent="DGfqUXDRV3Cry2h1_wnq-3" vertex="1">
          <mxGeometry y="104" width="460" height="8" as="geometry" />
        </mxCell>
        <mxCell id="DGfqUXDRV3Cry2h1_wnq-9" value="get_student_major()" style="text;align=left;verticalAlign=top;spacingLeft=4;spacingRight=4;overflow=hidden;rotatable=0;points=[[0,0.5],[1,0.5]];portConstraint=eastwest;" parent="DGfqUXDRV3Cry2h1_wnq-3" vertex="1">
          <mxGeometry y="112" width="460" height="26" as="geometry" />
        </mxCell>
        <mxCell id="DGfqUXDRV3Cry2h1_wnq-10" value="get_job_list()" style="text;align=left;verticalAlign=top;spacingLeft=4;spacingRight=4;overflow=hidden;rotatable=0;points=[[0,0.5],[1,0.5]];portConstraint=eastwest;" parent="DGfqUXDRV3Cry2h1_wnq-3" vertex="1">
          <mxGeometry y="138" width="460" height="26" as="geometry" />
        </mxCell>
        <mxCell id="DGfqUXDRV3Cry2h1_wnq-11" value="major_handle_change()" style="text;align=left;verticalAlign=top;spacingLeft=4;spacingRight=4;overflow=hidden;rotatable=0;points=[[0,0.5],[1,0.5]];portConstraint=eastwest;" parent="DGfqUXDRV3Cry2h1_wnq-3" vertex="1">
          <mxGeometry y="164" width="460" height="26" as="geometry" />
        </mxCell>
        <mxCell id="DGfqUXDRV3Cry2h1_wnq-12" value="job_handle_change()" style="text;align=left;verticalAlign=top;spacingLeft=4;spacingRight=4;overflow=hidden;rotatable=0;points=[[0,0.5],[1,0.5]];portConstraint=eastwest;" parent="DGfqUXDRV3Cry2h1_wnq-3" vertex="1">
          <mxGeometry y="190" width="460" height="26" as="geometry" />
        </mxCell>
        <mxCell id="DGfqUXDRV3Cry2h1_wnq-13" value="" style="line;html=1;strokeWidth=1;align=left;verticalAlign=middle;spacingTop=-1;spacingLeft=3;spacingRight=3;rotatable=0;labelPosition=right;points=[];portConstraint=eastwest;" parent="DGfqUXDRV3Cry2h1_wnq-3" vertex="1">
          <mxGeometry y="216" width="460" height="8" as="geometry" />
        </mxCell>
        <mxCell id="DGfqUXDRV3Cry2h1_wnq-14" value="&lt;input type=&quot;select&quot; name= &quot;major&quot; onchange=&quot;major_handle_change()&quot;&gt;" style="text;align=left;verticalAlign=top;spacingLeft=4;spacingRight=4;overflow=hidden;rotatable=0;points=[[0,0.5],[1,0.5]];portConstraint=eastwest;" parent="DGfqUXDRV3Cry2h1_wnq-3" vertex="1">
          <mxGeometry y="224" width="460" height="26" as="geometry" />
        </mxCell>
        <mxCell id="DGfqUXDRV3Cry2h1_wnq-15" value="&lt;input type=&quot;select&quot; name= &quot;job&quot; onchange=&quot;job_handle_change()&quot;&gt;" style="text;align=left;verticalAlign=top;spacingLeft=4;spacingRight=4;overflow=hidden;rotatable=0;points=[[0,0.5],[1,0.5]];portConstraint=eastwest;rounded=0;shadow=0;html=0;" parent="DGfqUXDRV3Cry2h1_wnq-3" vertex="1">
          <mxGeometry y="250" width="460" height="26" as="geometry" />
        </mxCell>
        <mxCell id="DGfqUXDRV3Cry2h1_wnq-16" value="job" style="swimlane;fontStyle=2;align=center;verticalAlign=top;childLayout=stackLayout;horizontal=1;startSize=26;horizontalStack=0;resizeParent=1;resizeLast=0;collapsible=1;marginBottom=0;rounded=0;shadow=0;strokeWidth=1;" parent="WIyWlLk6GJQsqaUBKTNV-1" vertex="1">
          <mxGeometry x="40" y="230" width="170" height="182" as="geometry">
            <mxRectangle x="230" y="140" width="160" height="26" as="alternateBounds" />
          </mxGeometry>
        </mxCell>
        <mxCell id="DGfqUXDRV3Cry2h1_wnq-17" value="major (ID)" style="text;align=left;verticalAlign=top;spacingLeft=4;spacingRight=4;overflow=hidden;rotatable=0;points=[[0,0.5],[1,0.5]];portConstraint=eastwest;" parent="DGfqUXDRV3Cry2h1_wnq-16" vertex="1">
          <mxGeometry y="26" width="170" height="26" as="geometry" />
        </mxCell>
        <mxCell id="DGfqUXDRV3Cry2h1_wnq-18" value="job" style="text;align=left;verticalAlign=top;spacingLeft=4;spacingRight=4;overflow=hidden;rotatable=0;points=[[0,0.5],[1,0.5]];portConstraint=eastwest;rounded=0;shadow=0;html=0;" parent="DGfqUXDRV3Cry2h1_wnq-16" vertex="1">
          <mxGeometry y="52" width="170" height="26" as="geometry" />
        </mxCell>
        <mxCell id="DGfqUXDRV3Cry2h1_wnq-59" value="job_ratio" style="text;align=left;verticalAlign=top;spacingLeft=4;spacingRight=4;overflow=hidden;rotatable=0;points=[[0,0.5],[1,0.5]];portConstraint=eastwest;rounded=0;shadow=0;html=0;" parent="DGfqUXDRV3Cry2h1_wnq-16" vertex="1">
          <mxGeometry y="78" width="170" height="26" as="geometry" />
        </mxCell>
        <mxCell id="DGfqUXDRV3Cry2h1_wnq-66" value="job_description" style="text;align=left;verticalAlign=top;spacingLeft=4;spacingRight=4;overflow=hidden;rotatable=0;points=[[0,0.5],[1,0.5]];portConstraint=eastwest;rounded=0;shadow=0;html=0;" parent="DGfqUXDRV3Cry2h1_wnq-16" vertex="1">
          <mxGeometry y="104" width="170" height="26" as="geometry" />
        </mxCell>
        <mxCell id="DGfqUXDRV3Cry2h1_wnq-68" value="job_skill (ID)" style="text;align=left;verticalAlign=top;spacingLeft=4;spacingRight=4;overflow=hidden;rotatable=0;points=[[0,0.5],[1,0.5]];portConstraint=eastwest;rounded=0;shadow=0;html=0;" parent="DGfqUXDRV3Cry2h1_wnq-16" vertex="1">
          <mxGeometry y="130" width="170" height="26" as="geometry" />
        </mxCell>
        <mxCell id="DGfqUXDRV3Cry2h1_wnq-69" value="job_recomanded_subject (ID)" style="text;align=left;verticalAlign=top;spacingLeft=4;spacingRight=4;overflow=hidden;rotatable=0;points=[[0,0.5],[1,0.5]];portConstraint=eastwest;rounded=0;shadow=0;html=0;" parent="DGfqUXDRV3Cry2h1_wnq-16" vertex="1">
          <mxGeometry y="156" width="170" height="26" as="geometry" />
        </mxCell>
        <mxCell id="DGfqUXDRV3Cry2h1_wnq-31" value="1. 간단하게 표현" style="text;html=1;strokeColor=none;fillColor=none;align=center;verticalAlign=middle;whiteSpace=wrap;rounded=0;" parent="WIyWlLk6GJQsqaUBKTNV-1" vertex="1">
          <mxGeometry x="65" y="50" width="130" height="20" as="geometry" />
        </mxCell>
        <mxCell id="DGfqUXDRV3Cry2h1_wnq-32" value="student" style="swimlane;fontStyle=2;align=center;verticalAlign=top;childLayout=stackLayout;horizontal=1;startSize=26;horizontalStack=0;resizeParent=1;resizeLast=0;collapsible=1;marginBottom=0;rounded=0;shadow=0;strokeWidth=1;" parent="WIyWlLk6GJQsqaUBKTNV-1" vertex="1">
          <mxGeometry x="40" y="110" width="160" height="104" as="geometry">
            <mxRectangle x="230" y="140" width="160" height="26" as="alternateBounds" />
          </mxGeometry>
        </mxCell>
        <mxCell id="DGfqUXDRV3Cry2h1_wnq-33" value="ID" style="text;align=left;verticalAlign=top;spacingLeft=4;spacingRight=4;overflow=hidden;rotatable=0;points=[[0,0.5],[1,0.5]];portConstraint=eastwest;" parent="DGfqUXDRV3Cry2h1_wnq-32" vertex="1">
          <mxGeometry y="26" width="160" height="26" as="geometry" />
        </mxCell>
        <mxCell id="DGfqUXDRV3Cry2h1_wnq-57" value="(...)" style="text;align=left;verticalAlign=top;spacingLeft=4;spacingRight=4;overflow=hidden;rotatable=0;points=[[0,0.5],[1,0.5]];portConstraint=eastwest;" parent="DGfqUXDRV3Cry2h1_wnq-32" vertex="1">
          <mxGeometry y="52" width="160" height="26" as="geometry" />
        </mxCell>
        <mxCell id="DGfqUXDRV3Cry2h1_wnq-58" value="major" style="text;align=left;verticalAlign=top;spacingLeft=4;spacingRight=4;overflow=hidden;rotatable=0;points=[[0,0.5],[1,0.5]];portConstraint=eastwest;" parent="DGfqUXDRV3Cry2h1_wnq-32" vertex="1">
          <mxGeometry y="78" width="160" height="26" as="geometry" />
        </mxCell>
        <mxCell id="DGfqUXDRV3Cry2h1_wnq-60" value="↑ 여기에 비율을 시각화하기 위한 함수등이 더 필요" style="text;html=1;strokeColor=#b85450;fillColor=#f8cecc;align=center;verticalAlign=middle;whiteSpace=wrap;rounded=0;" parent="WIyWlLk6GJQsqaUBKTNV-1" vertex="1">
          <mxGeometry x="340" y="430" width="380" height="20" as="geometry" />
        </mxCell>
        <mxCell id="DGfqUXDRV3Cry2h1_wnq-70" value="job_skill" style="swimlane;fontStyle=2;align=center;verticalAlign=top;childLayout=stackLayout;horizontal=1;startSize=26;horizontalStack=0;resizeParent=1;resizeLast=0;collapsible=1;marginBottom=0;rounded=0;shadow=0;strokeWidth=1;" parent="WIyWlLk6GJQsqaUBKTNV-1" vertex="1">
          <mxGeometry x="40" y="430" width="160" height="60" as="geometry">
            <mxRectangle x="230" y="140" width="160" height="26" as="alternateBounds" />
          </mxGeometry>
        </mxCell>
        <mxCell id="DGfqUXDRV3Cry2h1_wnq-71" value="name" style="text;align=left;verticalAlign=top;spacingLeft=4;spacingRight=4;overflow=hidden;rotatable=0;points=[[0,0.5],[1,0.5]];portConstraint=eastwest;" parent="DGfqUXDRV3Cry2h1_wnq-70" vertex="1">
          <mxGeometry y="26" width="160" height="26" as="geometry" />
        </mxCell>
        <mxCell id="DGfqUXDRV3Cry2h1_wnq-76" value="job_recomanded_subject " style="swimlane;fontStyle=2;align=center;verticalAlign=top;childLayout=stackLayout;horizontal=1;startSize=26;horizontalStack=0;resizeParent=1;resizeLast=0;collapsible=1;marginBottom=0;rounded=0;shadow=0;strokeWidth=1;" parent="WIyWlLk6GJQsqaUBKTNV-1" vertex="1">
          <mxGeometry x="40" y="510" width="160" height="130" as="geometry">
            <mxRectangle x="230" y="140" width="160" height="26" as="alternateBounds" />
          </mxGeometry>
        </mxCell>
        <mxCell id="DGfqUXDRV3Cry2h1_wnq-77" value="name" style="text;align=left;verticalAlign=top;spacingLeft=4;spacingRight=4;overflow=hidden;rotatable=0;points=[[0,0.5],[1,0.5]];portConstraint=eastwest;" parent="DGfqUXDRV3Cry2h1_wnq-76" vertex="1">
          <mxGeometry y="26" width="160" height="26" as="geometry" />
        </mxCell>
        <mxCell id="DGfqUXDRV3Cry2h1_wnq-78" value="grade" style="text;align=left;verticalAlign=top;spacingLeft=4;spacingRight=4;overflow=hidden;rotatable=0;points=[[0,0.5],[1,0.5]];portConstraint=eastwest;" parent="DGfqUXDRV3Cry2h1_wnq-76" vertex="1">
          <mxGeometry y="52" width="160" height="26" as="geometry" />
        </mxCell>
        <mxCell id="DGfqUXDRV3Cry2h1_wnq-79" value="semester" style="text;align=left;verticalAlign=top;spacingLeft=4;spacingRight=4;overflow=hidden;rotatable=0;points=[[0,0.5],[1,0.5]];portConstraint=eastwest;" parent="DGfqUXDRV3Cry2h1_wnq-76" vertex="1">
          <mxGeometry y="78" width="160" height="26" as="geometry" />
        </mxCell>
        <mxCell id="DGfqUXDRV3Cry2h1_wnq-80" value="number" style="text;align=left;verticalAlign=top;spacingLeft=4;spacingRight=4;overflow=hidden;rotatable=0;points=[[0,0.5],[1,0.5]];portConstraint=eastwest;" parent="DGfqUXDRV3Cry2h1_wnq-76" vertex="1">
          <mxGeometry y="104" width="160" height="26" as="geometry" />
        </mxCell>
        <mxCell id="I_vLJphkHoMVglU9jd89-0" value="survey_form" style="swimlane;fontStyle=0;align=center;verticalAlign=top;childLayout=stackLayout;horizontal=1;startSize=26;horizontalStack=0;resizeParent=1;resizeLast=0;collapsible=1;marginBottom=0;rounded=0;shadow=0;strokeWidth=1;" vertex="1" parent="WIyWlLk6GJQsqaUBKTNV-1">
          <mxGeometry x="320" y="770" width="460" height="180" as="geometry">
            <mxRectangle x="340" y="82" width="160" height="26" as="alternateBounds" />
          </mxGeometry>
        </mxCell>
        <mxCell id="I_vLJphkHoMVglU9jd89-2" value="survey" style="text;align=left;verticalAlign=top;spacingLeft=4;spacingRight=4;overflow=hidden;rotatable=0;points=[[0,0.5],[1,0.5]];portConstraint=eastwest;rounded=0;shadow=0;html=0;" vertex="1" parent="I_vLJphkHoMVglU9jd89-0">
          <mxGeometry y="26" width="460" height="26" as="geometry" />
        </mxCell>
        <mxCell id="I_vLJphkHoMVglU9jd89-4" value="" style="line;html=1;strokeWidth=1;align=left;verticalAlign=middle;spacingTop=-1;spacingLeft=3;spacingRight=3;rotatable=0;labelPosition=right;points=[];portConstraint=eastwest;" vertex="1" parent="I_vLJphkHoMVglU9jd89-0">
          <mxGeometry y="52" width="460" height="8" as="geometry" />
        </mxCell>
        <mxCell id="I_vLJphkHoMVglU9jd89-7" value="survey_handle_change()" style="text;align=left;verticalAlign=top;spacingLeft=4;spacingRight=4;overflow=hidden;rotatable=0;points=[[0,0.5],[1,0.5]];portConstraint=eastwest;" vertex="1" parent="I_vLJphkHoMVglU9jd89-0">
          <mxGeometry y="60" width="460" height="26" as="geometry" />
        </mxCell>
        <mxCell id="I_vLJphkHoMVglU9jd89-8" value="data_update_handle_change()" style="text;align=left;verticalAlign=top;spacingLeft=4;spacingRight=4;overflow=hidden;rotatable=0;points=[[0,0.5],[1,0.5]];portConstraint=eastwest;" vertex="1" parent="I_vLJphkHoMVglU9jd89-0">
          <mxGeometry y="86" width="460" height="26" as="geometry" />
        </mxCell>
        <mxCell id="I_vLJphkHoMVglU9jd89-9" value="" style="line;html=1;strokeWidth=1;align=left;verticalAlign=middle;spacingTop=-1;spacingLeft=3;spacingRight=3;rotatable=0;labelPosition=right;points=[];portConstraint=eastwest;" vertex="1" parent="I_vLJphkHoMVglU9jd89-0">
          <mxGeometry y="112" width="460" height="8" as="geometry" />
        </mxCell>
        <mxCell id="I_vLJphkHoMVglU9jd89-10" value="&lt;input type=&quot;file&quot; name= &quot;survey&quot; onchange=&quot;survey_handle_change()&quot;&gt;" style="text;align=left;verticalAlign=top;spacingLeft=4;spacingRight=4;overflow=hidden;rotatable=0;points=[[0,0.5],[1,0.5]];portConstraint=eastwest;" vertex="1" parent="I_vLJphkHoMVglU9jd89-0">
          <mxGeometry y="120" width="460" height="26" as="geometry" />
        </mxCell>
        <mxCell id="I_vLJphkHoMVglU9jd89-11" value="&lt;input type=&quot;button&quot; name= &quot;data_update&quot; onclick=&quot;data_update_handle_change()&quot;&gt;" style="text;align=left;verticalAlign=top;spacingLeft=4;spacingRight=4;overflow=hidden;rotatable=0;points=[[0,0.5],[1,0.5]];portConstraint=eastwest;rounded=0;shadow=0;html=0;" vertex="1" parent="I_vLJphkHoMVglU9jd89-0">
          <mxGeometry y="146" width="460" height="26" as="geometry" />
        </mxCell>
      </root>
    </mxGraphModel>
  </diagram>
</mxfile>
